<svg width="190" height="27" viewBox="0 0 190 27" fill="none" xmlns="http://www.w3.org/2000/svg">
    <!-- Existing logo icon + "Mimic" wordmark -->
    <path d="M72.9131 0.806881H68.995C68.4566 0.806881 68.0219 1.24331 68.0241 1.78168L68.0401 5.73768C68.0423 6.27605 68.4805 6.71248 69.0188 6.71248H72.937C73.4754 6.71248 73.9101 6.27605 73.9079 5.73768L73.8919 1.78168C73.8897 1.24331 73.4515 0.806881 72.9131 0.806881Z" fill="white"/>
    <path d="M112.887 0.806881H108.968C108.43 0.806881 107.995 1.24331 107.998 1.78168L108.014 5.73768C108.016 6.27605 108.454 6.71248 108.992 6.71248H112.911C113.449 6.71248 113.884 6.27605 113.881 5.73768L113.865 1.78168C113.863 1.24331 113.425 0.806881 112.887 0.806881Z" fill="white"/>
    <path d="M33.7643 13.949C29.4977 14.3783 25.144 20.3688 25.144 20.3688C24.7857 20.8608 24.2529 21.1646 23.7105 21.1888C23.3861 21.1984 22.7662 21.1453 22.2286 20.6196L21.2455 19.6598C21.1971 19.6067 21.1923 19.5295 21.2455 19.4765L25.7978 14.9426C26.9746 13.7705 27.6236 12.203 27.6236 10.5389C27.6236 8.87489 26.9746 7.30732 25.7978 6.13526L21.4683 1.82323C20.2431 0.60294 18.6304 -0.00479481 17.0226 2.8484e-05H17.0177C15.4099 -0.00479481 13.7973 0.60294 12.572 1.82323L8.24251 6.13526C7.0657 7.30732 6.41676 8.87007 6.41676 10.5389C6.41676 12.2078 7.0657 13.7705 8.24251 14.9426L12.7948 19.4765C12.8481 19.5295 12.8432 19.6067 12.7948 19.6598L11.8117 20.6196C11.2741 21.1453 10.6543 21.1984 10.3298 21.1888C9.78738 21.1646 9.25467 20.8608 8.8963 20.3688C8.8963 20.3688 4.53774 14.3783 0.276042 13.949C0.125914 13.9297 0 14.0503 0 14.1998L0.0387427 19.4958C0.0387427 19.6019 0.106543 19.6935 0.208242 19.7321C0.803912 19.9492 1.3899 20.4074 1.83059 20.8077C2.81369 21.6952 4.28107 23.7162 4.28107 23.7162C5.67581 25.6262 7.79213 26.7741 10.0925 26.8754C10.199 26.8754 10.3056 26.8754 10.417 26.8754C12.417 26.8754 14.3881 26.0748 15.8167 24.6808L17.0274 23.4991L18.2381 24.6808C19.6668 26.0748 21.6378 26.8754 23.6379 26.8754C23.7493 26.8754 23.8558 26.8754 23.9624 26.8754C26.2627 26.7741 28.379 25.6262 29.7738 23.7162C29.7738 23.7162 31.2412 21.6952 32.2243 20.8077C32.665 20.4074 33.2509 19.9492 33.8466 19.7321C33.9483 19.6935 34.0161 19.6019 34.0161 19.4958L34.0549 14.1998C34.0549 14.0503 33.9289 13.9297 33.7788 13.949H33.7643ZM17.841 14.6194C17.6134 14.8461 17.318 14.9522 17.0177 14.9571C16.7175 14.9619 16.4221 14.8461 16.1945 14.6194L12.8577 11.2962C12.4074 10.8476 12.4074 10.1145 12.8577 9.66591L16.1654 6.37642C16.3979 6.14008 16.7078 6.04361 17.0177 6.03879H17.0226C17.3277 6.03879 17.6376 6.1449 17.8749 6.37642L21.1826 9.66591C21.633 10.1145 21.633 10.8476 21.1826 11.2962L17.8459 14.6194H17.841Z" fill="#6F5CE6"/>
    <path d="M37.7329 1.45083H44.2839L51.0356 17.8993L57.792 1.45083H64.3764V25.4803H58.4036V12.8247H58.2364L53.2479 25.4803H48.871L43.8825 12.8247H43.7153V25.4803H37.7425V1.45083H37.7329Z" fill="white"/>
    <path d="M68.0442 7.88356H73.9167V25.4851H68.0442V7.88356Z" fill="white"/>
    <path d="M88.0195 15.5644C88.0195 13.6013 86.8298 12.7198 85.5396 12.7198C84.1826 12.7198 82.9594 13.6013 82.9594 15.5644V25.4802H77.0869V7.88341H82.9594V9.91326C83.9103 8.49331 85.5062 7.5451 87.7472 7.5451C89.7493 7.5451 91.479 8.35513 92.6019 10.1515C93.72 8.62673 95.6552 7.5451 98.3023 7.5451C102.068 7.5451 104.786 9.91326 104.786 15.3977V25.485H98.914V15.5692C98.914 13.6061 97.7576 12.7246 96.4723 12.7246C95.0484 12.7246 93.8586 13.6061 93.8586 15.5692V25.485H88.0195V15.5692V15.5644Z" fill="white"/>
    <path d="M108.028 7.88356H113.901V25.4851H108.028V7.88356Z" fill="white"/>
    <path d="M116.211 16.6462C116.211 10.6901 120.927 7.54049 125.682 7.54049C128.802 7.54049 131.521 8.96043 133.317 11.8718L129.074 14.645C128.295 13.6634 127.206 12.7819 125.682 12.7819C123.646 12.7819 121.983 14.34 121.983 16.6415C121.983 18.9429 123.646 20.5677 125.682 20.5677C127.211 20.5677 128.295 19.6862 129.074 18.7047L133.317 21.4778C131.521 24.3225 128.802 25.8091 125.682 25.8091C120.932 25.8091 116.211 22.6595 116.211 16.6367V16.6462Z" fill="white"/>

    <!-- New "swap" label next to the Mimic wordmark -->
    <text
            x="140"
            y="19"
            fill="white"
            font-family="system-ui, -apple-system, BlinkMacSystemFont, 'Segoe UI', sans-serif"
            font-size="11"
            letter-spacing="0.16em"
    >
        SWAP
    </text>
</svg>