<svg width="40" height="40" viewBox="0 0 40 40" fill="none" xmlns="http://www.w3.org/2000/svg">
<mask id="mask0_9238_8431" style="mask-type:alpha" maskUnits="userSpaceOnUse" x="0" y="0" width="40" height="40">
<circle cx="20" cy="20" r="20" fill="white"/>
</mask>
<g mask="url(#mask0_9238_8431)">
<path d="M53 -4H-14V49H53V-4Z" fill="#0052FF"/>
<path fill-rule="evenodd" clip-rule="evenodd" d="M8.19531 20.5C8.19531 27.2957 13.7043 32.8047 20.5 32.8047C27.2957 32.8047 32.8047 27.2957 32.8047 20.5C32.8047 13.7043 27.2957 8.19531 20.5 8.19531C13.7043 8.19531 8.19531 13.7043 8.19531 20.5ZM17.3555 16.5352C16.9024 16.5352 16.5352 16.9024 16.5352 17.3555V23.6445C16.5352 24.0976 16.9024 24.4648 17.3555 24.4648H23.6445C24.0976 24.4648 24.4648 24.0976 24.4648 23.6445V17.3555C24.4648 16.9024 24.0976 16.5352 23.6445 16.5352H17.3555Z" fill="white"/>
</g>
</svg>
